<svg xmlns="http://www.w3.org/2000/svg" fill="none" viewBox="0 0 56 57"><path fill="#89F3AD" stroke="#171D20" stroke-linecap="round" stroke-linejoin="round" stroke-width="1.362" d="M17.218 16.8v2.066h-5.736v-2.067a1.725 1.725 0 0 1 1.726-1.723h2.287a1.72 1.72 0 0 1 1.723 1.723Z"/><path stroke="#171D20" stroke-linecap="round" stroke-linejoin="round" stroke-width="1.362" d="M47.814 20.913V41.97a2.042 2.042 0 0 1-2.044 2.045H10.798A2.045 2.045 0 0 1 8.75 41.97V20.913a2.048 2.048 0 0 1 2.048-2.047h7.939a3.535 3.535 0 0 0 3.044-1.736l2.095-3.554a1.217 1.217 0 0 1 1.042-.592h8.426a1.209 1.209 0 0 1 1.041.592l2.096 3.554a3.534 3.534 0 0 0 3.044 1.736h6.245a2.045 2.045 0 0 1 2.044 2.047v0Z"/><path stroke="#171D20" stroke-linecap="round" stroke-linejoin="round" stroke-width="1.362" d="M28.847 40.736c5.618 0 10.172-4.554 10.172-10.172 0-5.617-4.554-10.171-10.172-10.171-5.617 0-10.171 4.554-10.171 10.171 0 5.618 4.554 10.172 10.171 10.172Z"/><path fill="#89F3AD" stroke="#171D20" stroke-linecap="round" stroke-linejoin="round" stroke-width="1.362" d="M28.847 37.245a6.68 6.68 0 1 0 0-13.361 6.68 6.68 0 0 0 0 13.361ZM43.68 24.506a1.488 1.488 0 1 0 0-2.975 1.488 1.488 0 0 0 0 2.975Z"/></svg>