<svg xmlns="http://www.w3.org/2000/svg" fill="none" viewBox="0 0 56 56"><path stroke="#171D20" stroke-linecap="round" stroke-linejoin="round" stroke-width="1.362" d="M36.962 11.198 11.198 36.962a.987.987 0 0 0 0 1.396l4.712 4.712a.987.987 0 0 0 1.396 0L43.07 17.306a.987.987 0 0 0 0-1.396l-4.712-4.712a.987.987 0 0 0-1.396 0ZM35.22 13.68l1.856 1.856m-4.952 1.24 1.856 1.856m-4.952 1.241 1.855 1.855m-11.135 7.425 1.855 1.855m-4.952 1.241 1.856 1.855m-4.952 1.241 1.856 1.856"/><path fill="#89F3AD" stroke="#171D20" stroke-linecap="round" stroke-linejoin="round" stroke-width="1.362" d="M32.297 41.025a6.705 6.705 0 0 1-1.793-6.225L19.467 23.763a6.696 6.696 0 0 1-8.017-8.017l1.821 1.821a2.368 2.368 0 0 0 3.348 0l1.096-1.096a2.368 2.368 0 0 0 0-3.348l-1.82-1.821a6.695 6.695 0 0 1 8.017 8.017l1.536 1.536 9.5 9.5a6.695 6.695 0 0 1 8.018 8.018l-1.822-1.821a2.368 2.368 0 0 0-3.347 0L36.7 37.648a2.368 2.368 0 0 0 0 3.348l1.822 1.82a6.874 6.874 0 0 1-3.94-.294 6.42 6.42 0 0 1-2.285-1.497Z"/></svg>