<svg xmlns="http://www.w3.org/2000/svg" fill="none" viewBox="0 0 56 56"><path stroke="#171D20" stroke-linecap="round" stroke-linejoin="round" stroke-width="1.194" d="M12.353 40.25a8.853 8.853 0 1 0 0-17.706 8.853 8.853 0 0 0 0 17.706Zm31.363 0a8.853 8.853 0 1 0 0-17.705 8.853 8.853 0 0 0 0 17.705Z"/><path stroke="#171D20" stroke-linecap="round" stroke-linejoin="round" stroke-width="1.194" d="M43.694 31.476 36.784 14h5.066M12.324 31.319 21.9 18.543h16.494L27.85 31.32s-15.525.093-15.525 0Zm7.908-16.86L27.9 31.24"/><path fill="#89F3AD" stroke="#171D20" stroke-linecap="round" stroke-linejoin="round" stroke-width="1.194" d="M27.893 35.572a4.183 4.183 0 1 0 0-8.367 4.183 4.183 0 0 0 0 8.367Z"/><path stroke="#171D20" stroke-linecap="round" stroke-linejoin="round" stroke-width="1.194" d="M18.27 14.403h6.201m4.632 24.333 3.07-1.27m-1.528.559-2.708-6.45"/></svg>