<svg xmlns="http://www.w3.org/2000/svg" fill="none" viewBox="0 0 56 56"><path fill="#89F3AD" stroke="#171D20" stroke-linecap="round" stroke-linejoin="round" stroke-width="1.362" d="M46.864 15.248v21.7l-3.162.01V17.674H12.825v19.368l-3.162.01V15.248A1.26 1.26 0 0 1 10.94 14h34.647a1.262 1.262 0 0 1 1.277 1.248Z"/><path stroke="#171D20" stroke-linecap="round" stroke-linejoin="round" stroke-width="1.362" d="M43.702 17.675v19.282l-30.877.086V17.675h30.877ZM12.825 37.15v-.107m30.877-.003v-.083m-38.452.256 2.275 3.466h41.478l2.275-3.466H5.25Zm34.484-2.588 1.329-1.328m-5.12 1.397 4.671-4.67"/><path fill="#171D20" d="M28.264 16.381a.643.643 0 1 0 0-1.285.643.643 0 0 0 0 1.285Z"/></svg>