<svg xmlns="http://www.w3.org/2000/svg" fill="none" viewBox="0 0 56 57"><path fill="#89F3AD" stroke="#171D20" stroke-linecap="round" stroke-linejoin="round" stroke-width="1.315" d="m19.887 19.046-.006.603h-5.06c-1.202 0-2.396.19-3.54.56-.003 0-.003 0-.006.003v-.76a2.966 2.966 0 0 1 2.968-2.968h2.707a2.961 2.961 0 0 1 2.937 2.562Zm25.691 0-.013 1.31a11.525 11.525 0 0 0-3.961-.707h-4.638v-.197a2.964 2.964 0 0 1 2.968-2.968h2.706a2.961 2.961 0 0 1 2.938 2.562Z"/><path stroke="#171D20" stroke-linecap="round" stroke-linejoin="round" stroke-width="1.315" d="M52.922 30.595a11.137 11.137 0 0 1-20.917 5.508 3.636 3.636 0 0 0-3.014-1.925c-.258-.01-1.298-.01-1.556 0a3.634 3.634 0 0 0-3.014 1.925 11.128 11.128 0 1 1-13.146-15.891c.003-.003.003-.003.006-.003 1.144-.37 2.338-.56 3.54-.56h26.783a11.529 11.529 0 0 1 3.962.707 11.169 11.169 0 0 1 7.356 10.24Z"/><path fill="#89F3AD" stroke="#171D20" stroke-linecap="round" stroke-linejoin="round" stroke-width="1.315" d="M20.535 28.224h-3.993V24.23H12.82v3.994H8.828v3.72h3.993v3.994h3.72v-3.994h3.994v-3.72Zm21.014 9.085a2.216 2.216 0 1 0 0-4.432 2.216 2.216 0 0 0 0 4.432Zm0-9.152a2.216 2.216 0 1 0 0-4.432 2.216 2.216 0 0 0 0 4.432Zm-5.151 4.576a2.216 2.216 0 1 0 0-4.432 2.216 2.216 0 0 0 0 4.432Zm10.302 0a2.216 2.216 0 1 0 0-4.432 2.216 2.216 0 0 0 0 4.432Z"/></svg>