<svg xmlns="http://www.w3.org/2000/svg" fill="none" viewBox="0 0 56 57"><path stroke="#171D20" stroke-linecap="round" stroke-linejoin="round" stroke-width="1.362" d="M15.784 39.849c-1.087 1.778-.165 3.92 1.665 4.629a2.852 2.852 0 0 0 1.985-.017c1.524-.55 5.442-1.189 9.78-1.189 3.665 0 7.226.598 8.695 1.16a2.876 2.876 0 0 0 2.227-.044 3.166 3.166 0 0 0 1.454-4.539l-8.02-13.123c-2.17-3.55-7.595-3.55-9.765 0l-8.021 13.123Z"/><path fill="#89F3AD" stroke="#171D20" stroke-linecap="round" stroke-linejoin="round" stroke-width="1.362" d="M31.24 16.162a4.156 4.156 0 0 0 8.103 1.85c.51-2.237-.492-6.21-2.73-6.719-2.237-.51-4.862 2.632-5.374 4.87Zm15.173 12.07a3.805 3.805 0 0 1-7.215-2.419c.669-1.992 3.393-4.76 5.385-4.093 1.993.668 2.498 4.518 1.83 6.512Zm-20.461-12.07a4.156 4.156 0 0 1-8.103 1.85c-.511-2.237.49-6.21 2.729-6.719 2.237-.51 4.863 2.632 5.374 4.87Zm-15.174 12.07a3.806 3.806 0 0 0 7.216-2.42c-.668-1.993-3.393-4.761-5.385-4.093-1.992.668-2.499 4.52-1.83 6.513Z"/></svg>