<svg xmlns="http://www.w3.org/2000/svg" fill="none" viewBox="0 0 56 56"><path stroke="#171D20" stroke-linecap="round" stroke-linejoin="round" stroke-width="1.362" d="M49.282 30.745H7v5.494h42.282v-5.494Zm-36.76 5.73V51.15M43.76 36.475V51.15m-18.5-20.446-2.357-9.06h10.903l-2.358 9.06H25.26Zm3.094-9.248V9.747m.626 11.688 6.863-5.409m-7.915 5.409-6.863-5.409"/><path fill="#89F3AD" stroke="#171D20" stroke-linecap="round" stroke-linejoin="round" stroke-width="1.362" d="M28.31 14.105a4.427 4.427 0 1 0 0-8.855 4.427 4.427 0 0 0 0 8.855Zm7.647 4.995a2.944 2.944 0 1 0 0-5.887 2.944 2.944 0 0 0 0 5.888Zm-14.657 0a2.944 2.944 0 1 0 0-5.887 2.944 2.944 0 0 0 0 5.888Z"/></svg>