<svg xmlns="http://www.w3.org/2000/svg" fill="none" viewBox="0 0 56 56"><path stroke="#171D20" stroke-linecap="round" stroke-linejoin="round" stroke-width="1.362" d="M37.911 10.336v29.717h-20.41V10.336a1.59 1.59 0 0 1 1.586-1.586h17.238a1.59 1.59 0 0 1 1.586 1.586v0Z"/><path fill="#89F3AD" stroke="#171D20" stroke-linecap="round" stroke-linejoin="round" stroke-width="1.362" d="M37.911 40.053v5.331a1.59 1.59 0 0 1-1.586 1.587H19.086a1.59 1.59 0 0 1-1.586-1.587v-5.331h20.411Z"/><path stroke="#171D20" stroke-linecap="round" stroke-linejoin="round" stroke-width="1.362" d="M27.753 44.812a1.254 1.254 0 1 0 0-2.508 1.254 1.254 0 0 0 0 2.508Zm-3.445-32.261-3.324 3.324m.294-4.427-1.398 1.397"/><path fill="#171D20" d="M27.747 11.576a.814.814 0 1 0 0-1.627.814.814 0 0 0 0 1.627Z"/></svg>