<svg xmlns="http://www.w3.org/2000/svg" fill="none" viewBox="0 0 56 57"><path fill="#89F3AD" stroke="#171D20" stroke-linecap="round" stroke-linejoin="round" stroke-width="1.31" d="M49.676 40.47s-16.643 1.374-22.205 1.383c-3.173.006-9.584-.01-12.671-.756-2.505-.603-6.373-1.507-9.15-4.146a7.797 7.797 0 0 1-2.037-3.275 77.598 77.598 0 0 0 23.78 3.2c8.285-.25 16.544-1.03 24.728-2.334l.354 2.52a3.027 3.027 0 0 1-2.8 3.408Z"/><path stroke="#171D20" stroke-linecap="round" stroke-linejoin="round" stroke-width="1.31" d="M52.122 34.542a194.25 194.25 0 0 1-24.728 2.334 77.601 77.601 0 0 1-23.78-3.2c-.057-.212-.722-2.9 1.958-4.039 1.58-.67 15.732-4.987 20.774-7.983 3.222-1.913 4.713-3.868 5.633-5.294a1.56 1.56 0 0 1 2.033-.547l.07.036a1.573 1.573 0 0 1 .752 1.918l-.184.518c-.639 2.191.408 3.779 1.428 4.866a6.423 6.423 0 0 0 5.345 1.931c2.289-.228 5.27-1.205 6.423-4.811a1.166 1.166 0 0 1 1.039-.755v0a1.312 1.312 0 0 1 1.3 1.152l1.937 13.874ZM20.37 22.903l1.876 3.164M16.714 24.4l1.877 3.164m5.379-6.287 1.876 3.163m1.661-4.903 1.876 3.164"/></svg>